M48
; DRILL file {KiCad 8.0.2} date 2024-06-17T23:47:08+0700
; FORMAT={-:-/ absolute / inch / decimal}
; #@! TF.CreationDate,2024-06-17T23:47:08+07:00
; #@! TF.GenerationSoftware,Kicad,Pcbnew,8.0.2
; #@! TF.FileFunction,Plated,1,2,PTH
FMAT,2
INCH
; #@! TA.AperFunction,Plated,PTH,ComponentDrill
T1C0.1260
; #@! TA.AperFunction,Plated,PTH,ComponentDrill
T2C0.1476
%
G90
G05
T1
X2.5394Y-1.4862
X2.5394Y-5.3051
X8.0512Y-1.4862
X8.0512Y-5.3051
T2
X2.6969Y-2.8248
X2.6969Y-3.4203
X2.6969Y-4.0157
X3.4843Y-1.8406
X3.4843Y-2.8248
X3.4843Y-4.0157
X3.4843Y-5.0
X5.0591Y-1.8406
X5.0591Y-2.8248
X5.0591Y-4.0157
X5.0591Y-5.0
X6.2579Y-1.8406
X6.2579Y-2.8248
X6.2579Y-4.0059
X6.2579Y-4.9902
X7.7165Y-3.4203
X7.723Y-1.8406
X7.723Y-5.0
M30
