%TF.GenerationSoftware,KiCad,Pcbnew,8.0.2*%
%TF.CreationDate,2024-06-17T23:47:08+07:00*%
%TF.ProjectId,Diode_AD_DC_Converter,44696f64-655f-4414-945f-44435f436f6e,rev?*%
%TF.SameCoordinates,Original*%
%TF.FileFunction,Copper,L2,Bot*%
%TF.FilePolarity,Positive*%
%FSLAX46Y46*%
G04 Gerber Fmt 4.6, Leading zero omitted, Abs format (unit mm)*
G04 Created by KiCad (PCBNEW 8.0.2) date 2024-06-17 23:47:08*
%MOMM*%
%LPD*%
G01*
G04 APERTURE LIST*
%TA.AperFunction,ComponentPad*%
%ADD10C,6.500000*%
%TD*%
%TA.AperFunction,ComponentPad*%
%ADD11C,6.400000*%
%TD*%
%TA.AperFunction,Conductor*%
%ADD12C,2.000000*%
%TD*%
G04 APERTURE END LIST*
D10*
%TO.P,D2,1,K*%
%TO.N,Net-(D1-K)*%
X128500000Y-46750000D03*
%TO.P,D2,2,A*%
%TO.N,Net-(D2-A)*%
X128500000Y-71750000D03*
%TD*%
%TO.P,C5,1*%
%TO.N,Net-(D1-K)*%
X158950000Y-46750000D03*
%TO.P,C5,2*%
%TO.N,GND*%
X158950000Y-71750000D03*
%TD*%
D11*
%TO.P,H2,1*%
%TO.N,N/C*%
X204500000Y-37750000D03*
%TD*%
%TO.P,H1,1*%
%TO.N,N/C*%
X64500000Y-37750000D03*
%TD*%
D10*
%TO.P,C6,1*%
%TO.N,GND*%
X158950000Y-101750000D03*
%TO.P,C6,2*%
%TO.N,Net-(D3-A)*%
X158950000Y-126750000D03*
%TD*%
%TO.P,J6,1,Pin_1*%
%TO.N,GND*%
X196000000Y-86875000D03*
%TD*%
%TO.P,D4,1,K*%
%TO.N,Net-(D2-A)*%
X128500000Y-102000000D03*
%TO.P,D4,2,A*%
%TO.N,Net-(D3-A)*%
X128500000Y-127000000D03*
%TD*%
%TO.P,D1,1,K*%
%TO.N,Net-(D1-K)*%
X88500000Y-46750000D03*
%TO.P,D1,2,A*%
%TO.N,Net-(D1-A)*%
X88500000Y-71750000D03*
%TD*%
D11*
%TO.P,H3,1*%
%TO.N,N/C*%
X64500000Y-134750000D03*
%TD*%
D10*
%TO.P,J3,1,Pin_1*%
%TO.N,Net-(D1-K)*%
X196164285Y-46750000D03*
%TD*%
%TO.P,J2,1,Pin_1*%
%TO.N,Net-(D2-A)*%
X68500000Y-102000000D03*
%TD*%
%TO.P,J5,1,Pin_1*%
%TO.N,GND*%
X68500000Y-86875000D03*
%TD*%
%TO.P,J1,1,Pin_1*%
%TO.N,Net-(D1-A)*%
X68500000Y-71750000D03*
%TD*%
D11*
%TO.P,H4,1*%
%TO.N,N/C*%
X204500000Y-134750000D03*
%TD*%
D10*
%TO.P,D3,1,K*%
%TO.N,Net-(D1-A)*%
X88500000Y-102000000D03*
%TO.P,D3,2,A*%
%TO.N,Net-(D3-A)*%
X88500000Y-127000000D03*
%TD*%
%TO.P,J4,1,Pin_1*%
%TO.N,Net-(D3-A)*%
X196164285Y-127000000D03*
%TD*%
D12*
%TO.N,Net-(D1-K)*%
X159000000Y-46750000D02*
X196164285Y-46750000D01*
X88500000Y-46750000D02*
X128500000Y-46750000D01*
X128500000Y-46750000D02*
X158950000Y-46750000D01*
X158950000Y-46800000D02*
X159000000Y-46750000D01*
%TO.N,Net-(D1-A)*%
X88500000Y-102000000D02*
X88500000Y-80500000D01*
X88500000Y-80500000D02*
X88500000Y-71750000D01*
X68500000Y-71750000D02*
X88500000Y-71750000D01*
%TO.N,Net-(D2-A)*%
X128500000Y-102000000D02*
X128500000Y-71750000D01*
X127100000Y-111250000D02*
X128500000Y-109850000D01*
X68500000Y-102000000D02*
X68500000Y-110000000D01*
X69750000Y-111250000D02*
X127100000Y-111250000D01*
X128500000Y-109850000D02*
X128500000Y-102000000D01*
X68500000Y-110000000D02*
X69750000Y-111250000D01*
%TO.N,Net-(D3-A)*%
X158950000Y-126950000D02*
X159000000Y-127000000D01*
X129650000Y-126750000D02*
X158950000Y-126750000D01*
X129400000Y-127000000D02*
X129650000Y-126750000D01*
X88500000Y-127000000D02*
X128500000Y-127000000D01*
X128500000Y-127000000D02*
X129400000Y-127000000D01*
X158950000Y-126750000D02*
X195914285Y-126750000D01*
X195914285Y-126750000D02*
X196164285Y-127000000D01*
%TO.N,GND*%
X155000000Y-119000000D02*
X158950000Y-115050000D01*
X68500000Y-86875000D02*
X64875000Y-86875000D01*
X158950000Y-115050000D02*
X158950000Y-101750000D01*
X158950000Y-72000000D02*
X158950000Y-86750000D01*
X62750000Y-113250000D02*
X68500000Y-119000000D01*
X196000000Y-86875000D02*
X195875000Y-86750000D01*
X158950000Y-86750000D02*
X158950000Y-101750000D01*
X195875000Y-86750000D02*
X158950000Y-86750000D01*
X68500000Y-119000000D02*
X155000000Y-119000000D01*
X62750000Y-89000000D02*
X62750000Y-113250000D01*
X64875000Y-86875000D02*
X62750000Y-89000000D01*
%TD*%
%TA.AperFunction,Conductor*%
%TO.N,Net-(D1-K)*%
G36*
X160370151Y-43825650D02*
G01*
X165442445Y-45747138D01*
X165448967Y-45753273D01*
X165450000Y-45758079D01*
X165450000Y-47741920D01*
X165446573Y-47750193D01*
X165442445Y-47752861D01*
X160370151Y-49674349D01*
X160361200Y-49674075D01*
X160355466Y-49668487D01*
X159941052Y-48808559D01*
X158951446Y-46755077D01*
X158950942Y-46746139D01*
X158951442Y-46744930D01*
X160355466Y-43831511D01*
X160362145Y-43825546D01*
X160370151Y-43825650D01*
G37*
%TD.AperFunction*%
%TD*%
%TA.AperFunction,Conductor*%
%TO.N,GND*%
G36*
X194588923Y-83950826D02*
G01*
X194594437Y-83956312D01*
X195998552Y-86869921D01*
X195999057Y-86878861D01*
X195998552Y-86880079D01*
X194594638Y-89793269D01*
X194587959Y-89799235D01*
X194579711Y-89799036D01*
X189521397Y-87752958D01*
X189515012Y-87746679D01*
X189514084Y-87742112D01*
X189514084Y-85758260D01*
X189517511Y-85749987D01*
X189521867Y-85747235D01*
X194579982Y-83950366D01*
X194588923Y-83950826D01*
G37*
%TD.AperFunction*%
%TD*%
%TA.AperFunction,Conductor*%
%TO.N,Net-(D3-A)*%
G36*
X160370151Y-123825650D02*
G01*
X165442445Y-125747138D01*
X165448967Y-125753273D01*
X165450000Y-125758079D01*
X165450000Y-127741920D01*
X165446573Y-127750193D01*
X165442445Y-127752861D01*
X160370151Y-129674349D01*
X160361200Y-129674075D01*
X160355466Y-129668487D01*
X159941052Y-128808559D01*
X158951446Y-126755077D01*
X158950942Y-126746139D01*
X158951442Y-126744930D01*
X160355466Y-123831511D01*
X160362145Y-123825546D01*
X160370151Y-123825650D01*
G37*
%TD.AperFunction*%
%TD*%
%TA.AperFunction,Conductor*%
%TO.N,Net-(D1-A)*%
G36*
X88505069Y-71751442D02*
G01*
X90558559Y-72741052D01*
X91418487Y-73155466D01*
X91424453Y-73162145D01*
X91424349Y-73170151D01*
X89502862Y-78242445D01*
X89496727Y-78248967D01*
X89491921Y-78250000D01*
X87508079Y-78250000D01*
X87499806Y-78246573D01*
X87497138Y-78242445D01*
X85575650Y-73170151D01*
X85575924Y-73161200D01*
X85581512Y-73155466D01*
X88494922Y-71751446D01*
X88503861Y-71750942D01*
X88505069Y-71751442D01*
G37*
%TD.AperFunction*%
%TD*%
%TA.AperFunction,Conductor*%
%TO.N,Net-(D3-A)*%
G36*
X127088799Y-124075924D02*
G01*
X127094533Y-124081512D01*
X128498552Y-126994921D01*
X128499057Y-127003861D01*
X128498552Y-127005079D01*
X127094533Y-129918487D01*
X127087854Y-129924453D01*
X127079848Y-129924349D01*
X122007555Y-128002861D01*
X122001033Y-127996726D01*
X122000000Y-127991920D01*
X122000000Y-126008079D01*
X122003427Y-125999806D01*
X122007555Y-125997138D01*
X127079849Y-124075650D01*
X127088799Y-124075924D01*
G37*
%TD.AperFunction*%
%TD*%
%TA.AperFunction,Conductor*%
%TO.N,Net-(D2-A)*%
G36*
X128505069Y-71751442D02*
G01*
X130558559Y-72741052D01*
X131418487Y-73155466D01*
X131424453Y-73162145D01*
X131424349Y-73170151D01*
X129502862Y-78242445D01*
X129496727Y-78248967D01*
X129491921Y-78250000D01*
X127508079Y-78250000D01*
X127499806Y-78246573D01*
X127497138Y-78242445D01*
X125575650Y-73170151D01*
X125575924Y-73161200D01*
X125581512Y-73155466D01*
X128494922Y-71751446D01*
X128503861Y-71750942D01*
X128505069Y-71751442D01*
G37*
%TD.AperFunction*%
%TD*%
%TA.AperFunction,Conductor*%
%TO.N,Net-(D3-A)*%
G36*
X195437789Y-123836198D02*
G01*
X195443658Y-123842961D01*
X195443966Y-123844058D01*
X196164372Y-126996005D01*
X196163506Y-127003691D01*
X194759030Y-129918049D01*
X194752351Y-129924015D01*
X194743865Y-129923717D01*
X189699528Y-127753044D01*
X189693283Y-127746626D01*
X189692453Y-127742297D01*
X189692453Y-125758429D01*
X189695880Y-125750156D01*
X189700447Y-125747332D01*
X195428857Y-123835567D01*
X195437789Y-123836198D01*
G37*
%TD.AperFunction*%
%TD*%
%TA.AperFunction,Conductor*%
%TO.N,Net-(D1-A)*%
G36*
X87088799Y-68825924D02*
G01*
X87094533Y-68831512D01*
X88498552Y-71744921D01*
X88499057Y-71753861D01*
X88498552Y-71755079D01*
X87094533Y-74668487D01*
X87087854Y-74674453D01*
X87079848Y-74674349D01*
X82007555Y-72752861D01*
X82001033Y-72746726D01*
X82000000Y-72741920D01*
X82000000Y-70758079D01*
X82003427Y-70749806D01*
X82007555Y-70747138D01*
X87079849Y-68825650D01*
X87088799Y-68825924D01*
G37*
%TD.AperFunction*%
%TD*%
%TA.AperFunction,Conductor*%
%TO.N,Net-(D1-K)*%
G36*
X194753084Y-43825924D02*
G01*
X194758818Y-43831512D01*
X196162837Y-46744921D01*
X196163342Y-46753861D01*
X196162837Y-46755079D01*
X194758818Y-49668487D01*
X194752139Y-49674453D01*
X194744133Y-49674349D01*
X189671840Y-47752861D01*
X189665318Y-47746726D01*
X189664285Y-47741920D01*
X189664285Y-45758079D01*
X189667712Y-45749806D01*
X189671840Y-45747138D01*
X194744134Y-43825650D01*
X194753084Y-43825924D01*
G37*
%TD.AperFunction*%
%TD*%
%TA.AperFunction,Conductor*%
%TO.N,GND*%
G36*
X158955069Y-71751442D02*
G01*
X161008559Y-72741052D01*
X161868487Y-73155466D01*
X161874453Y-73162145D01*
X161874349Y-73170151D01*
X159952862Y-78242445D01*
X159946727Y-78248967D01*
X159941921Y-78250000D01*
X157958079Y-78250000D01*
X157949806Y-78246573D01*
X157947138Y-78242445D01*
X156025650Y-73170151D01*
X156025924Y-73161200D01*
X156031512Y-73155466D01*
X158944922Y-71751446D01*
X158953861Y-71750942D01*
X158955069Y-71751442D01*
G37*
%TD.AperFunction*%
%TD*%
%TA.AperFunction,Conductor*%
%TO.N,Net-(D1-K)*%
G36*
X127088799Y-43825924D02*
G01*
X127094533Y-43831512D01*
X128498552Y-46744921D01*
X128499057Y-46753861D01*
X128498552Y-46755079D01*
X127094533Y-49668487D01*
X127087854Y-49674453D01*
X127079848Y-49674349D01*
X122007555Y-47752861D01*
X122001033Y-47746726D01*
X122000000Y-47741920D01*
X122000000Y-45758079D01*
X122003427Y-45749806D01*
X122007555Y-45747138D01*
X127079849Y-43825650D01*
X127088799Y-43825924D01*
G37*
%TD.AperFunction*%
%TD*%
%TA.AperFunction,Conductor*%
%TO.N,Net-(D1-K)*%
G36*
X157538799Y-43825924D02*
G01*
X157544533Y-43831512D01*
X158948552Y-46744921D01*
X158949057Y-46753861D01*
X158948552Y-46755079D01*
X157544533Y-49668487D01*
X157537854Y-49674453D01*
X157529848Y-49674349D01*
X152457555Y-47752861D01*
X152451033Y-47746726D01*
X152450000Y-47741920D01*
X152450000Y-45758079D01*
X152453427Y-45749806D01*
X152457555Y-45747138D01*
X157529849Y-43825650D01*
X157538799Y-43825924D01*
G37*
%TD.AperFunction*%
%TD*%
%TA.AperFunction,Conductor*%
%TO.N,GND*%
G36*
X159950194Y-95253427D02*
G01*
X159952862Y-95257555D01*
X161874349Y-100329848D01*
X161874075Y-100338799D01*
X161868487Y-100344533D01*
X158955079Y-101748552D01*
X158946139Y-101749057D01*
X158944921Y-101748552D01*
X156031512Y-100344533D01*
X156025546Y-100337854D01*
X156025649Y-100329849D01*
X157947138Y-95257554D01*
X157953273Y-95251033D01*
X157958079Y-95250000D01*
X159941921Y-95250000D01*
X159950194Y-95253427D01*
G37*
%TD.AperFunction*%
%TD*%
%TA.AperFunction,Conductor*%
%TO.N,Net-(D1-A)*%
G36*
X89500194Y-95503427D02*
G01*
X89502862Y-95507555D01*
X91424349Y-100579848D01*
X91424075Y-100588799D01*
X91418487Y-100594533D01*
X88505079Y-101998552D01*
X88496139Y-101999057D01*
X88494921Y-101998552D01*
X85581512Y-100594533D01*
X85575546Y-100587854D01*
X85575649Y-100579849D01*
X87497138Y-95507554D01*
X87503273Y-95501033D01*
X87508079Y-95500000D01*
X89491921Y-95500000D01*
X89500194Y-95503427D01*
G37*
%TD.AperFunction*%
%TD*%
%TA.AperFunction,Conductor*%
%TO.N,GND*%
G36*
X158955069Y-101751442D02*
G01*
X161008559Y-102741052D01*
X161868487Y-103155466D01*
X161874453Y-103162145D01*
X161874349Y-103170151D01*
X159952862Y-108242445D01*
X159946727Y-108248967D01*
X159941921Y-108250000D01*
X157958079Y-108250000D01*
X157949806Y-108246573D01*
X157947138Y-108242445D01*
X156025650Y-103170151D01*
X156025924Y-103161200D01*
X156031512Y-103155466D01*
X158944922Y-101751446D01*
X158953861Y-101750942D01*
X158955069Y-101751442D01*
G37*
%TD.AperFunction*%
%TD*%
%TA.AperFunction,Conductor*%
%TO.N,Net-(D3-A)*%
G36*
X89920151Y-124075650D02*
G01*
X94992445Y-125997138D01*
X94998967Y-126003273D01*
X95000000Y-126008079D01*
X95000000Y-127991920D01*
X94996573Y-128000193D01*
X94992445Y-128002861D01*
X89920151Y-129924349D01*
X89911200Y-129924075D01*
X89905466Y-129918487D01*
X89491052Y-129058559D01*
X88501446Y-127005077D01*
X88500942Y-126996139D01*
X88501442Y-126994930D01*
X89905466Y-124081511D01*
X89912145Y-124075546D01*
X89920151Y-124075650D01*
G37*
%TD.AperFunction*%
%TD*%
%TA.AperFunction,Conductor*%
%TO.N,Net-(D1-A)*%
G36*
X69920151Y-68825650D02*
G01*
X74992445Y-70747138D01*
X74998967Y-70753273D01*
X75000000Y-70758079D01*
X75000000Y-72741920D01*
X74996573Y-72750193D01*
X74992445Y-72752861D01*
X69920151Y-74674349D01*
X69911200Y-74674075D01*
X69905466Y-74668487D01*
X69491052Y-73808559D01*
X68501446Y-71755077D01*
X68500942Y-71746139D01*
X68501442Y-71744930D01*
X69905466Y-68831511D01*
X69912145Y-68825546D01*
X69920151Y-68825650D01*
G37*
%TD.AperFunction*%
%TD*%
%TA.AperFunction,Conductor*%
%TO.N,Net-(D1-K)*%
G36*
X129920151Y-43825650D02*
G01*
X134992445Y-45747138D01*
X134998967Y-45753273D01*
X135000000Y-45758079D01*
X135000000Y-47741920D01*
X134996573Y-47750193D01*
X134992445Y-47752861D01*
X129920151Y-49674349D01*
X129911200Y-49674075D01*
X129905466Y-49668487D01*
X129491052Y-48808559D01*
X128501446Y-46755077D01*
X128500942Y-46746139D01*
X128501442Y-46744930D01*
X129905466Y-43831511D01*
X129912145Y-43825546D01*
X129920151Y-43825650D01*
G37*
%TD.AperFunction*%
%TD*%
%TA.AperFunction,Conductor*%
%TO.N,Net-(D1-K)*%
G36*
X89920151Y-43825650D02*
G01*
X94992445Y-45747138D01*
X94998967Y-45753273D01*
X95000000Y-45758079D01*
X95000000Y-47741920D01*
X94996573Y-47750193D01*
X94992445Y-47752861D01*
X89920151Y-49674349D01*
X89911200Y-49674075D01*
X89905466Y-49668487D01*
X89491052Y-48808559D01*
X88501446Y-46755077D01*
X88500942Y-46746139D01*
X88501442Y-46744930D01*
X89905466Y-43831511D01*
X89912145Y-43825546D01*
X89920151Y-43825650D01*
G37*
%TD.AperFunction*%
%TD*%
%TA.AperFunction,Conductor*%
%TO.N,Net-(D3-A)*%
G36*
X129235423Y-123835565D02*
G01*
X134963836Y-125747331D01*
X134970599Y-125753200D01*
X134971832Y-125758429D01*
X134971832Y-127742297D01*
X134968405Y-127750570D01*
X134964757Y-127753044D01*
X129920419Y-129923717D01*
X129911465Y-129923840D01*
X129905255Y-129918050D01*
X128500777Y-127003688D01*
X128499912Y-126996008D01*
X129220319Y-123844055D01*
X129225502Y-123836756D01*
X129234331Y-123835259D01*
X129235423Y-123835565D01*
G37*
%TD.AperFunction*%
%TD*%
%TA.AperFunction,Conductor*%
%TO.N,Net-(D2-A)*%
G36*
X128505069Y-102001442D02*
G01*
X130558559Y-102991052D01*
X131418487Y-103405466D01*
X131424453Y-103412145D01*
X131424349Y-103420151D01*
X129502862Y-108492445D01*
X129496727Y-108498967D01*
X129491921Y-108500000D01*
X127508079Y-108500000D01*
X127499806Y-108496573D01*
X127497138Y-108492445D01*
X125575650Y-103420151D01*
X125575924Y-103411200D01*
X125581512Y-103405466D01*
X128494922Y-102001446D01*
X128503861Y-102000942D01*
X128505069Y-102001442D01*
G37*
%TD.AperFunction*%
%TD*%
%TA.AperFunction,Conductor*%
%TO.N,Net-(D3-A)*%
G36*
X157538799Y-123825924D02*
G01*
X157544533Y-123831512D01*
X158948552Y-126744921D01*
X158949057Y-126753861D01*
X158948552Y-126755079D01*
X157544533Y-129668487D01*
X157537854Y-129674453D01*
X157529848Y-129674349D01*
X152457555Y-127752861D01*
X152451033Y-127746726D01*
X152450000Y-127741920D01*
X152450000Y-125758079D01*
X152453427Y-125749806D01*
X152457555Y-125747138D01*
X157529849Y-123825650D01*
X157538799Y-123825924D01*
G37*
%TD.AperFunction*%
%TD*%
%TA.AperFunction,Conductor*%
%TO.N,Net-(D2-A)*%
G36*
X129500194Y-95503427D02*
G01*
X129502862Y-95507555D01*
X131424349Y-100579848D01*
X131424075Y-100588799D01*
X131418487Y-100594533D01*
X128505079Y-101998552D01*
X128496139Y-101999057D01*
X128494921Y-101998552D01*
X125581512Y-100594533D01*
X125575546Y-100587854D01*
X125575649Y-100579849D01*
X127497138Y-95507554D01*
X127503273Y-95501033D01*
X127508079Y-95500000D01*
X129491921Y-95500000D01*
X129500194Y-95503427D01*
G37*
%TD.AperFunction*%
%TD*%
%TA.AperFunction,Conductor*%
%TO.N,Net-(D2-A)*%
G36*
X68505069Y-102001442D02*
G01*
X70558559Y-102991052D01*
X71418487Y-103405466D01*
X71424453Y-103412145D01*
X71424349Y-103420151D01*
X69502862Y-108492445D01*
X69496727Y-108498967D01*
X69491921Y-108500000D01*
X67508079Y-108500000D01*
X67499806Y-108496573D01*
X67497138Y-108492445D01*
X65575650Y-103420151D01*
X65575924Y-103411200D01*
X65581512Y-103405466D01*
X68494922Y-102001446D01*
X68503861Y-102000942D01*
X68505069Y-102001442D01*
G37*
%TD.AperFunction*%
%TD*%
%TA.AperFunction,Conductor*%
%TO.N,GND*%
G36*
X66480953Y-84343218D02*
G01*
X66481363Y-84343704D01*
X68498151Y-86871090D01*
X68500706Y-86878391D01*
X68500002Y-90112036D01*
X68496573Y-90120308D01*
X68488299Y-90123733D01*
X68487103Y-90123671D01*
X63553309Y-89615463D01*
X63546235Y-89612098D01*
X62143724Y-88209587D01*
X62140297Y-88201314D01*
X62143724Y-88193041D01*
X62144190Y-88192600D01*
X66464437Y-84342265D01*
X66472890Y-84339321D01*
X66480953Y-84343218D01*
G37*
%TD.AperFunction*%
%TD*%
M02*
